<svg xmlns="http://www.w3.org/2000/svg" xml:space="preserve" width="755.739" height="162.428" style="shape-rendering:geometricPrecision;text-rendering:geometricPrecision;image-rendering:optimizeQuality;fill-rule:evenodd;clip-rule:evenodd" viewBox="0 0 199.956 42.976" xmlns:xlink="http://www.w3.org/1999/xlink"><defs><linearGradient id="id0" gradientUnits="userSpaceOnUse" x1="0" y1="21.486" x2="35" y2="21.486"><stop offset="0" style="stop-color:#f49200"/><stop offset="1" style="stop-color:#e83a5a"/></linearGradient><linearGradient id="id1" gradientUnits="userSpaceOnUse" x1="36" y1="34.071" x2="53.9" y2="34.071"><stop offset="0" style="stop-color:#37b641"/><stop offset="1" style="stop-color:#007e46"/></linearGradient><linearGradient id="id2" gradientUnits="userSpaceOnUse" xlink:href="#id1" x1="26.1" y1="24.071" x2="44" y2="24.071"/><style>.fil3{fill:#6d6e71;fill-rule:nonzero}</style></defs><g id="Vrstva_x0020_1"><path d="m1 26.996.006-8.001a6.496 6.496 0 0 1 12.988 0v17.501c0 .959.396 1.834 1.034 2.472a3.485 3.485 0 0 0 4.945 0 3.492 3.492 0 0 0 1.033-2.47V6.494a6.496 6.496 0 0 1 11.088-4.592 6.527 6.527 0 0 1 1.9 4.591L34 9.496a2.5 2.5 0 0 1-1.5 4.5 2.514 2.514 0 0 1-2.5-2.5c0-.818.393-1.544 1-2l.006-3.002c0-.932-.377-1.814-1.033-2.47a3.485 3.485 0 0 0-4.945 0 3.492 3.492 0 0 0-1.034 2.47v30.003a6.478 6.478 0 0 1-1.9 4.592c-2.516 2.515-6.67 2.516-9.187 0a6.477 6.477 0 0 1-1.901-4.593V18.994c0-.958-.396-1.833-1.034-2.47a3.485 3.485 0 0 0-4.944 0 3.492 3.492 0 0 0-1.034 2.47L4 26.997a2.5 2.5 0 1 1-3 0z" style="fill:url(#id0);fill-rule:nonzero"/><path d="M35 22.496h7.5a1.5 1.5 0 0 1 0 3H35v3.5h-.006a1.244 1.244 0 0 1-2.02.972l-6.235-4.989a1.244 1.244 0 0 1-.015-1.955l6.151-4.922a1.25 1.25 0 0 1 2.124.893l.001 3.5z" style="fill:url(#id2);fill-rule:nonzero"/><path d="M45 35.496h-7.5a1.5 1.5 0 0 1 0-3H45v-3.5a1.25 1.25 0 0 1 2.123-.895l6.153 4.923a1.244 1.244 0 0 1 0 1.943l-6.25 5a1.244 1.244 0 0 1-2.02-.971H45v-3.5z" style="fill:url(#id1);fill-rule:nonzero"/><path class="fil3" d="m71.302 33.946-6.895-19.859h-.133c.189 2.948.277 5.713.277 8.294v11.565h-3.53V10.168h5.485l6.6 18.914h.1l6.796-18.914h5.501v23.778h-3.742V22.187c0-1.182.028-2.72.09-4.619.06-1.898.11-3.048.155-3.447h-.133l-7.14 19.825h-3.43z"/><path id="1" class="fil3" d="M101.881 13.16c-2.237 0-3.992.789-5.274 2.376-1.277 1.583-1.915 3.764-1.915 6.551 0 2.92.616 5.124 1.843 6.623 1.232 1.494 3.014 2.243 5.346 2.243 1.005 0 1.982-.1 2.926-.3.943-.2 1.926-.46 2.942-.771v3.33c-1.865.706-3.975 1.061-6.34 1.061-3.48 0-6.157-1.055-8.022-3.164-1.865-2.11-2.792-5.13-2.792-9.055 0-2.47.45-4.636 1.354-6.49.905-1.854 2.215-3.27 3.93-4.258 1.71-.988 3.726-1.482 6.035-1.482 2.426 0 4.67.51 6.729 1.532l-1.394 3.237a20.776 20.776 0 0 0-2.548-1.005 9.3 9.3 0 0 0-2.82-.428z"/><path id="12" class="fil3" d="M128.617 17.357c0 2.482-.81 4.386-2.437 5.707-1.627 1.322-3.942 1.982-6.945 1.982h-2.47v8.9h-3.892V10.168h6.85c2.97 0 5.197.605 6.673 1.82 1.483 1.217 2.221 3.004 2.221 5.37zm-11.853 4.425h2.065c1.994 0 3.46-.35 4.392-1.044.932-.694 1.399-1.776 1.399-3.253 0-1.366-.422-2.387-1.255-3.059-.833-.672-2.137-1.005-3.903-1.005h-2.698v8.361z"/><path id="123" class="fil3" d="M147.809 33.946h-16.116v-2.893l6.129-6.168c1.81-1.854 3.014-3.17 3.603-3.941.594-.778 1.021-1.505 1.293-2.188a5.884 5.884 0 0 0 .405-2.198c0-1.072-.322-1.921-.965-2.537-.644-.616-1.538-.927-2.676-.927-.91 0-1.794.166-2.643.505-.85.339-1.838.944-2.954 1.82l-2.065-2.52c1.322-1.115 2.61-1.91 3.853-2.376 1.25-.466 2.576-.7 3.986-.7 2.215 0 3.986.578 5.319 1.733 1.332 1.155 2.004 2.71 2.004 4.663a8.182 8.182 0 0 1-.578 3.054c-.388.966-.977 1.96-1.776 2.986-.794 1.027-2.12 2.41-3.975 4.159l-4.13 3.997v.166h11.286v3.365z"/><path id="1234" class="fil3" d="M166.824 33.946h-16.116v-2.893l6.129-6.168c1.81-1.854 3.014-3.17 3.603-3.941.594-.778 1.021-1.505 1.293-2.188a5.884 5.884 0 0 0 .405-2.198c0-1.072-.322-1.921-.965-2.537-.644-.616-1.538-.927-2.676-.927-.91 0-1.794.166-2.643.505-.85.339-1.838.944-2.954 1.82l-2.065-2.52c1.322-1.115 2.61-1.91 3.853-2.376 1.25-.466 2.576-.7 3.986-.7 2.215 0 3.986.578 5.319 1.733 1.332 1.155 2.004 2.71 2.004 4.663a8.182 8.182 0 0 1-.578 3.054c-.388.966-.977 1.96-1.776 2.986-.794 1.027-2.12 2.41-3.975 4.159l-4.13 3.997v.166h11.286v3.365z"/><path id="12345" class="fil3" d="M185.838 33.946h-16.116v-2.893l6.129-6.168c1.81-1.854 3.014-3.17 3.603-3.941.594-.778 1.021-1.505 1.293-2.188a5.884 5.884 0 0 0 .405-2.198c0-1.072-.322-1.921-.965-2.537-.645-.616-1.538-.927-2.676-.927-.91 0-1.794.166-2.643.505-.85.339-1.838.944-2.954 1.82l-2.065-2.52c1.322-1.115 2.61-1.91 3.853-2.376 1.25-.466 2.576-.7 3.986-.7 2.215 0 3.986.578 5.319 1.733 1.332 1.155 2.004 2.71 2.004 4.663a8.182 8.182 0 0 1-.578 3.054c-.388.966-.977 1.96-1.776 2.986-.794 1.027-2.12 2.41-3.975 4.159l-4.13 3.997v.166h11.286v3.365z"/><path id="123456" class="fil3" d="M199.956 33.946h-3.82V18.59c0-1.832.045-3.281.128-4.358-.25.26-.555.55-.916.86-.366.317-1.582 1.316-3.653 2.998l-1.92-2.426 6.994-5.496h3.187v23.778z"/></g></svg>